HIERARCHY
ROOT hip
{
	OFFSET 0.000000 0.000000 0.000000
	CHANNELS 6 Xposition Yposition Zposition Zrotation Yrotation Xrotation 
	JOINT lhipjoint
	{
		OFFSET 0.000000 0.000000 0.000000
		CHANNELS 3 Zrotation Yrotation Xrotation
		JOINT lfemur
		{
			OFFSET 1.363060 -1.794630 0.839290
			CHANNELS 3 Zrotation Yrotation Xrotation
			JOINT ltibia
			{
				OFFSET 2.448110 -6.726130 0.000000
				CHANNELS 3 Zrotation Yrotation Xrotation
				JOINT lfoot
				{
					OFFSET 2.562200 -7.039590 0.000000
					CHANNELS 3 Zrotation Yrotation Xrotation
					JOINT ltoes
					{
						OFFSET 0.157640 -0.433110 2.322550
						CHANNELS 3 Zrotation Yrotation Xrotation
						End Site
						{
							OFFSET 0.000000 0.000000 0.000000
						}
					}
				}
			}
		}
	}
	JOINT rhipjoint
	{
		OFFSET 0.000000 0.000000 0.000000
		CHANNELS 3 Zrotation Yrotation Xrotation
		JOINT rfemur
		{
			OFFSET -1.305520 -1.794630 0.839290
			CHANNELS 3 Zrotation Yrotation Xrotation
			JOINT rtibia
			{
				OFFSET -2.542530 -6.985550 0.000000
				CHANNELS 3 Zrotation Yrotation Xrotation
				JOINT rfoot
				{
					OFFSET -2.568260 -7.056230 0.000000
					CHANNELS 3 Zrotation Yrotation Xrotation
					JOINT rtoes
					{
						OFFSET -0.164730 -0.452590 2.363150
						CHANNELS 3 Zrotation Yrotation Xrotation
						End Site
						{
							OFFSET 0.000000 0.000000 0.000000
						}
					}
				}
			}
		}
	}
	JOINT lowerback
	{
		OFFSET 0.000000 0.000000 0.000000
		CHANNELS 3 Zrotation Yrotation Xrotation
		JOINT upperback
		{
			OFFSET 0.028270 2.035590 -0.193380
			CHANNELS 3 Zrotation Yrotation Xrotation
			JOINT thorax
			{
				OFFSET 0.056720 2.048850 -0.042750
				CHANNELS 3 Zrotation Yrotation Xrotation
				JOINT lowerneck
				{
					OFFSET 0.000000 0.000000 0.000000
					CHANNELS 3 Zrotation Yrotation Xrotation
					JOINT upperneck
					{
						OFFSET -0.054170 1.746240 0.172020
						CHANNELS 3 Zrotation Yrotation Xrotation
						JOINT head
						{
							OFFSET 0.104070 1.761360 -0.123970
							CHANNELS 3 Zrotation Yrotation Xrotation
							End Site
							{
								OFFSET 0.000000 0.000000 0.000000
							}
						}
					}
				}
				JOINT lclavicle
				{
					OFFSET 0.000000 0.000000 0.000000
					CHANNELS 3 Zrotation Yrotation Xrotation
					JOINT lhumerus
					{
						OFFSET 3.362410 1.200890 -0.311210
						CHANNELS 3 Zrotation Yrotation Xrotation
						JOINT lradius
						{
							OFFSET 4.983000 -0.000000 -0.000000
							CHANNELS 3 Zrotation Yrotation Xrotation
							JOINT lwrist
							{
								OFFSET 3.483560 -0.000000 -0.000000
								CHANNELS 3 Zrotation Yrotation Xrotation
								JOINT lhand
								{
									OFFSET 0.000000 0.000000 0.000000
									CHANNELS 3 Zrotation Yrotation Xrotation
									JOINT lfingers
									{
										OFFSET 0.715260 -0.000000 -0.000000
										CHANNELS 3 Zrotation Yrotation Xrotation
										End Site
										{
											OFFSET 0.000000 0.000000 0.000000
										}
									}
								}
								JOINT lthumb
								{
									OFFSET 0.000000 0.000000 0.000000
									CHANNELS 3 Zrotation Yrotation Xrotation
									End Site
									{
										OFFSET 0.000000 0.000000 0.000000
									}
								}
							}
						}
					}
				}
				JOINT rclavicle
				{
					OFFSET 0.000000 0.000000 0.000000
					CHANNELS 3 Zrotation Yrotation Xrotation
					JOINT rhumerus
					{
						OFFSET -3.136600 1.374050 -0.404650
						CHANNELS 3 Zrotation Yrotation Xrotation
						JOINT rradius
						{
							OFFSET -5.241900 -0.000000 -0.000000
							CHANNELS 3 Zrotation Yrotation Xrotation
							JOINT rwrist
							{
								OFFSET -3.444170 -0.000000 -0.000000
								CHANNELS 3 Zrotation Yrotation Xrotation
								JOINT rhand
								{
									OFFSET 0.000000 0.000000 0.000000
									CHANNELS 3 Zrotation Yrotation Xrotation
									JOINT rfingers
									{
										OFFSET -0.622530 -0.000000 -0.000000
										CHANNELS 3 Zrotation Yrotation Xrotation
										End Site
										{
											OFFSET 0.000000 0.000000 0.000000
										}
									}
								}
								JOINT rthumb
								{
									OFFSET 0.000000 0.000000 0.000000
									CHANNELS 3 Zrotation Yrotation Xrotation
									End Site
									{
										OFFSET 0.000000 0.000000 0.000000
									}
								}
							}
						}
					}
				}
			}
		}
	}
}
MOTION
Frames: 8
Frame Time: 0.008333
-10.025139 16.790619 -1.146959 41.419388 -87.321661 -46.920155 -5.150322 -2.809038 -1.131274 -15.113560 0.105505 -22.348754 3.624129 10.069839 28.935065 0.202702 1.870021 4.492207 0.091100 -1.947200 -5.359700 3.187509 7.626232 -5.247004 7.575449 -11.980996 9.156880 -6.986847 -18.630831 49.419288 -2.156380 9.799409 22.625693 -0.010900 -0.674900 1.854600 -2.271960 4.708659 19.378662 -0.005133 5.099712 -0.059833 -6.012431 1.530280 15.876327 -3.512295 -3.612361 -6.070625 -0.451084 -4.012959 23.890646 -1.389400 -1.632800 4.663600 -5.433579 -1.887230 3.942035 -75.992883 -10.944920 21.280278 8.637290 -20.772167 -2.029609 0.354966 0.663409 34.498858 11.248879 -6.633574 -1.477400 -7.125000 0.000000 0.000000 -11.266000 22.482500 6.219400 6.721564 1.457910 5.267381 74.051696 15.670055 21.112711 -12.991905 32.775381 -3.426030 -0.111117 -1.901066 3.493078 -10.974100 7.689469 -1.860200 7.125000 0.000000 0.000000 11.382100 -20.266800 6.869900 
-10.139530 16.807011 -1.132805 42.585459 -87.330538 -48.280216 -5.078427 -2.849222 -1.183812 -15.260195 0.315298 -21.695058 3.618756 10.165681 29.055049 0.200859 1.662020 4.083826 0.084200 -1.871200 -5.149800 3.246337 7.593918 -5.217876 7.191539 -11.747188 8.034924 -7.603395 -19.044922 51.534460 -2.111492 9.911475 22.568307 0.000000 -0.036100 0.099100 -2.382016 4.830538 19.816138 -0.030493 5.177544 0.026913 -6.098735 1.556145 16.005481 -3.739587 -3.541739 -5.886273 -0.319379 -3.961123 23.698688 -1.269000 -1.617400 4.530600 -5.468543 -1.846023 3.993438 -75.635000 -11.998707 21.663083 9.115549 -21.251767 -2.152538 0.354386 0.701940 33.739375 11.615986 -6.509114 -1.509600 -7.125000 0.000000 0.000000 -10.997200 22.561600 6.045100 6.636606 1.349506 5.260567 74.114164 16.391429 20.480670 -11.335459 31.237130 -2.970946 -0.100301 -1.774880 4.740495 -10.062444 7.334972 -1.623100 7.125000 0.000000 0.000000 12.027400 -20.788800 7.131700 
-10.252578 16.825285 -1.120533 42.832586 -87.340675 -48.707037 -5.023118 -2.902896 -1.239596 -15.353432 0.502236 -21.032350 3.608046 10.247739 29.137287 0.199339 1.482793 3.696408 0.076100 -1.779000 -4.895300 3.284538 7.536098 -5.182556 6.873273 -11.556107 6.866655 -8.218004 -19.415006 53.571633 -2.002533 10.225013 22.076887 -0.014600 0.779900 -2.143300 -2.466993 4.945510 20.251845 -0.042735 5.256826 0.112622 -6.132919 1.573686 16.124622 -3.982881 -3.486098 -5.701988 -0.212466 -3.924259 23.531477 -1.156400 -1.611300 4.410100 -5.498006 -1.805606 4.043987 -75.303018 -13.013817 22.275613 9.702435 -21.851298 -2.303961 0.339841 0.750200 32.748331 11.984706 -6.170968 -1.497400 -7.125000 0.000000 0.000000 -10.730200 22.853500 5.820100 6.565261 1.238189 5.250408 74.091408 17.177220 19.656433 -9.662347 29.627839 -2.550446 -0.098433 -1.628934 6.229505 -9.173674 7.173470 -1.432100 7.125000 0.000000 0.000000 12.657200 -21.130900 7.423000 
-10.362222 16.842305 -1.109157 43.915586 -87.346933 -49.941816 -4.953233 -2.944123 -1.296059 -15.493079 0.701275 -20.402715 3.593248 10.319948 29.189585 0.198958 1.327874 3.349500 0.067100 -1.671800 -4.599400 3.344977 7.488828 -5.145021 6.489798 -11.375759 5.649488 -8.831654 -19.744685 55.556757 -1.843770 10.626910 21.189032 -0.051300 1.462200 -4.021500 -2.606035 5.065224 20.652542 -0.056563 5.341295 0.207103 -6.131765 1.580141 16.294217 -4.178900 -3.448785 -5.551720 -0.166083 -3.891080 23.299074 -1.079500 -1.605000 4.271900 -5.530926 -1.750470 4.091809 -74.989975 -13.979364 22.915910 10.466857 -22.640683 -2.512032 0.312797 0.811138 31.673660 12.441069 -5.646546 -1.453500 -7.125000 0.000000 0.000000 -10.397900 23.325400 5.519200 6.510037 1.122744 5.241070 74.014045 18.061669 18.747403 -8.023014 27.995781 -2.172305 -0.096132 -1.474293 7.865284 -8.298940 7.088215 -1.262800 7.125000 0.000000 0.000000 13.277900 -21.400500 7.723100 
-10.469626 16.859863 -1.099393 44.133307 -87.358637 -50.279165 -4.899133 -2.992268 -1.353113 -15.577975 0.867019 -19.805730 3.577500 10.382914 29.226596 0.197987 1.232129 3.025616 0.056300 -1.531600 -4.212800 3.384240 7.410513 -5.097944 6.205306 -11.195685 4.358430 -9.435015 -20.028058 57.465435 -1.665002 10.919408 19.978047 -0.100300 2.042400 -5.622800 -2.701644 5.175315 21.044315 -0.066201 5.418166 0.293340 -6.144268 1.587507 16.429712 -4.358885 -3.423714 -5.341503 -0.134873 -3.878463 23.048778 -1.010700 -1.608200 4.114100 -5.563746 -1.701712 4.139348 -74.640088 -14.836225 23.726396 11.378174 -23.581087 -2.770131 0.271431 0.877094 30.438941 12.889684 -4.960895 -1.364000 -7.125000 0.000000 0.000000 -10.071300 23.962900 5.190200 6.463547 1.011598 5.228756 73.910522 18.953607 17.673796 -6.420072 26.341942 -1.833775 -0.088877 -1.312070 9.723504 -7.379657 7.063815 -1.101700 7.125000 0.000000 0.000000 13.927700 -21.615000 8.053600 
-10.573805 16.876345 -1.091510 43.657324 -87.347457 -49.905308 -4.858629 -3.044719 -1.409456 -15.639236 1.022777 -19.246605 3.562249 10.440549 29.257699 0.197599 1.069912 2.700518 0.053100 -1.486700 -4.089100 3.411699 7.316550 -5.042715 5.951837 -11.074529 3.026577 -10.016726 -20.269441 59.283082 -1.485933 11.155454 18.596743 -0.150100 2.496300 -6.879400 -2.800673 5.276403 21.441154 -0.068641 5.488051 0.372009 -6.132544 1.585265 16.520699 -4.484956 -3.419751 -5.064567 -0.152016 -3.889475 22.782466 -0.973600 -1.620400 3.936200 -5.586973 -1.656497 4.184785 -74.301963 -15.604775 24.566515 12.369181 -24.596815 -3.066799 0.221303 0.944578 29.103953 13.339936 -4.211753 -1.248100 -7.125000 0.000000 0.000000 -9.741800 24.667600 4.854200 6.428570 0.912593 5.216298 73.825293 19.815302 16.427193 -4.925670 24.730343 -1.546523 -0.072219 -1.159220 11.678409 -6.474451 6.996849 -0.945700 7.125000 0.000000 0.000000 14.569500 -21.858800 8.365300 
-10.674401 16.890588 -1.084344 43.728035 -87.319502 -50.061268 -4.809904 -3.084791 -1.464660 -15.745231 1.163557 -18.740328 3.551305 10.499550 29.303857 0.195873 0.902528 2.329214 0.057900 -1.552700 -4.271000 3.455774 7.225013 -4.981964 5.680418 -10.948660 1.674663 -10.567896 -20.466464 60.990639 -1.330593 11.231424 17.204500 -0.117600 2.211300 -6.089900 -2.912016 5.398973 21.854488 -0.081833 5.576977 0.452045 -6.162438 1.595614 16.619177 -4.523729 -3.435276 -4.868934 -0.172788 -3.918788 22.552670 -0.959900 -1.636500 3.794900 -5.616245 -1.600816 4.223931 -73.919015 -16.350966 25.412013 13.460039 -25.699394 -3.410906 0.164831 1.006350 27.803680 13.720515 -3.436001 -1.105600 -7.125000 0.000000 0.000000 -9.463400 25.409900 4.546200 6.402182 0.819123 5.204258 73.761739 20.718542 15.158262 -3.531080 23.171225 -1.304561 -0.057921 -1.018516 13.478020 -5.695044 6.974441 -0.818900 7.125000 0.000000 0.000000 15.126400 -22.039700 8.643000 
-10.771415 16.902770 -1.078252 43.344667 -87.223756 -49.759486 -4.773124 -3.123669 -1.519131 -15.875216 1.221586 -18.250731 3.547252 10.562241 29.376288 0.192782 0.779670 1.935851 0.061500 -1.600100 -4.401800 3.497463 7.131153 -4.917619 5.397360 -10.882363 0.349324 -11.069196 -20.621830 62.539816 -1.202722 11.190432 15.888405 -0.073900 1.753400 -4.824700 -3.059874 5.494067 22.295776 -0.087178 5.626710 0.531574 -6.149658 1.576177 16.693865 -4.585520 -3.445011 -4.642774 -0.214335 -3.938835 22.303348 -0.949700 -1.649200 3.643200 -5.644613 -1.548860 4.262882 -73.566102 -17.045127 26.223024 14.633311 -26.877063 -3.806739 0.118889 1.067618 26.437079 14.175843 -2.898020 -1.019100 -7.125000 0.000000 0.000000 -9.120600 25.903900 4.270900 6.387831 0.726072 5.192516 73.649020 21.667704 13.757993 -2.200587 21.601450 -1.096258 -0.050875 -0.879043 15.340519 -5.077196 7.058246 -0.727200 7.125000 0.000000 0.000000 15.568700 -22.108700 8.889400 
